<svg width="176" height="43" viewBox="0 0 176 43" fill="none" xmlns="http://www.w3.org/2000/svg">
<path d="M21.2291 42.8933H20.8737C16.5733 42.8933 13.0745 39.3945 13.0745 35.0941V34.9129C13.0745 32.8359 13.9248 30.8077 15.4024 29.351C17.4794 27.3088 20.2255 26.1867 23.1388 26.1867H33.6214C35.9981 26.1867 37.9357 24.2491 37.9357 21.8724C37.9357 19.4957 35.9981 17.5581 33.6214 17.5581C31.4608 17.5581 29.335 18.2899 27.6344 19.6142L19.7027 25.7894C16.4827 28.2916 12.4681 29.6716 8.39076 29.6716C4.09039 29.6716 0.591553 26.1728 0.591553 21.8724C0.591553 17.572 4.09039 14.0732 8.39076 14.0732H19.7027C21.0688 14.0732 22.3931 13.6899 23.5431 12.958C24.7977 12.1635 25.5504 10.7974 25.5504 9.31283V8.69948C25.5504 6.32278 23.6128 4.38518 21.2361 4.38518H20.8458C18.4691 4.38518 16.5315 6.32278 16.5315 8.69948V10.5534C16.5315 11.5153 15.7509 12.2959 14.789 12.2959C13.8272 12.2959 13.0466 11.5153 13.0466 10.5534V8.69948C13.0396 4.39215 16.5384 0.893311 20.8458 0.893311H21.2361C25.5365 0.893311 29.0353 4.39215 29.0353 8.69251V9.30586C29.0353 11.9962 27.6762 14.4565 25.411 15.8993C23.7034 16.9796 21.7309 17.5511 19.7027 17.5511H8.39076C6.01405 17.5511 4.07645 19.4887 4.07645 21.8654C4.07645 24.2421 6.01405 26.1797 8.39076 26.1797C11.6944 26.1797 14.9563 25.0646 17.563 23.0294L25.4946 16.8541C27.8086 15.0559 30.6941 14.0593 33.6284 14.0593C37.9288 14.0593 41.4276 17.5581 41.4276 21.8585C41.4276 26.1588 37.9288 29.6577 33.6284 29.6577H23.1458C21.1525 29.6577 19.2706 30.4243 17.8557 31.8253C17.0333 32.6338 16.5663 33.7559 16.5663 34.9059V35.0871C16.5663 37.4638 18.5039 39.4014 20.8806 39.4014H21.2361C23.6128 39.4014 25.5504 37.4638 25.5504 35.0871V32.801C25.5504 31.8392 26.331 31.0586 27.2928 31.0586C28.2547 31.0586 29.0353 31.8392 29.0353 32.801V35.0871C29.0353 39.3875 25.5365 42.8863 21.2361 42.8863L21.2291 42.8933Z" fill="#FF8C66"/>
<path d="M73.794 15.558C74.7913 15.558 75.8 15.7733 76.82 16.204C77.84 16.612 78.7127 17.36 79.438 18.448C80.186 19.536 80.56 20.998 80.56 22.834V33H76.378V22.834C76.378 21.5647 76.0153 20.658 75.29 20.114C74.5873 19.5473 73.76 19.264 72.808 19.264C71.992 19.264 71.278 19.5133 70.666 20.012C70.054 20.488 69.6573 21.2587 69.476 22.324V22.834V33H65.294V22.834C65.294 21.5647 64.9313 20.658 64.206 20.114C63.5033 19.5473 62.6647 19.264 61.69 19.264C60.9193 19.264 60.2167 19.502 59.582 19.978C58.97 20.454 58.5733 21.2133 58.392 22.256V33H54.176V16H58.392V17.326C58.9587 16.782 59.6047 16.3513 60.33 16.034C61.078 15.7167 61.8713 15.558 62.71 15.558C63.7527 15.558 64.8067 15.7847 65.872 16.238C66.9373 16.6913 67.7873 17.4507 68.422 18.516C69.0113 17.6773 69.782 16.9747 70.734 16.408C71.686 15.8413 72.706 15.558 73.794 15.558ZM91.8828 15.558C93.5148 15.558 94.9768 15.966 96.2688 16.782C97.5835 17.5753 98.6035 18.652 99.3288 20.012C100.054 21.372 100.417 22.8793 100.417 24.534C100.417 25.078 100.371 25.5767 100.281 26.03H87.1568C87.4968 27.2313 88.0975 28.172 88.9588 28.852C89.8201 29.5093 90.9195 29.838 92.2568 29.838C93.0728 29.838 93.8548 29.6567 94.6028 29.294C95.3735 28.9313 95.9515 28.4667 96.3368 27.9L99.5668 29.804C98.7735 30.9827 97.7421 31.8893 96.4728 32.524C95.2261 33.136 93.7868 33.442 92.1548 33.442C90.3415 33.442 88.7321 33.0567 87.3268 32.286C85.9215 31.5153 84.8335 30.45 84.0628 29.09C83.3148 27.73 82.9408 26.2 82.9408 24.5C82.9408 22.8227 83.3148 21.304 84.0628 19.944C84.8335 18.584 85.8988 17.5187 87.2588 16.748C88.6188 15.9547 90.1601 15.558 91.8828 15.558ZM96.4728 22.732C96.2915 21.644 95.7815 20.794 94.9428 20.182C94.1268 19.5473 93.0955 19.23 91.8488 19.23C90.9875 19.23 90.1941 19.3887 89.4688 19.706C88.7661 20.0233 88.1995 20.454 87.7688 20.998C87.3381 21.542 87.1115 22.12 87.0888 22.732H96.4728ZM116.378 9.2H120.594V33H116.378V31.368C115.608 32.048 114.746 32.5693 113.794 32.932C112.842 33.2947 111.856 33.476 110.836 33.476C109.114 33.476 107.606 33.0907 106.314 32.32C105.022 31.5493 104.025 30.484 103.322 29.124C102.642 27.764 102.302 26.234 102.302 24.534C102.302 22.834 102.642 21.304 103.322 19.944C104.025 18.584 105.022 17.5187 106.314 16.748C107.606 15.9547 109.114 15.558 110.836 15.558C111.856 15.558 112.831 15.7507 113.76 16.136C114.712 16.4987 115.585 17.0087 116.378 17.666V9.2ZM111.38 29.43C112.31 29.43 113.148 29.226 113.896 28.818C114.667 28.3873 115.268 27.798 115.698 27.05C116.152 26.302 116.378 25.452 116.378 24.5C116.378 23.072 115.891 21.9047 114.916 20.998C113.964 20.0913 112.786 19.638 111.38 19.638C109.952 19.638 108.774 20.1027 107.844 21.032C106.938 21.9387 106.484 23.106 106.484 24.534C106.484 25.962 106.938 27.1407 107.844 28.07C108.774 28.9767 109.952 29.43 111.38 29.43ZM127.108 13.178C126.315 13.178 125.691 12.9627 125.238 12.532C124.785 12.1013 124.558 11.512 124.558 10.764C124.558 9.99333 124.785 9.39267 125.238 8.962C125.691 8.53133 126.315 8.316 127.108 8.316C127.901 8.316 128.525 8.53133 128.978 8.962C129.431 9.39267 129.658 9.99333 129.658 10.764C129.658 11.4893 129.42 12.0787 128.944 12.532C128.491 12.9627 127.879 13.178 127.108 13.178ZM124.966 33V16H129.182V33H124.966ZM148.001 29.702C147.162 30.858 146.108 31.776 144.839 32.456C143.569 33.136 142.198 33.476 140.725 33.476C139.115 33.476 137.619 33.0793 136.237 32.286C134.877 31.47 133.789 30.382 132.973 29.022C132.179 27.6393 131.783 26.1433 131.783 24.534C131.783 22.9247 132.179 21.44 132.973 20.08C133.789 18.6973 134.877 17.6093 136.237 16.816C137.619 16 139.115 15.592 140.725 15.592C142.175 15.592 143.535 15.932 144.805 16.612C146.074 17.2693 147.128 18.1647 147.967 19.298L144.499 21.644C143.433 20.3973 142.175 19.774 140.725 19.774C139.863 19.774 139.07 19.9893 138.345 20.42C137.619 20.8507 137.041 21.4287 136.611 22.154C136.18 22.8793 135.965 23.6727 135.965 24.534C135.965 25.3953 136.18 26.1887 136.611 26.914C137.041 27.6393 137.619 28.2173 138.345 28.648C139.07 29.056 139.863 29.26 140.725 29.26C142.175 29.26 143.433 28.6367 144.499 27.39L148.001 29.702ZM170.103 16H175.271L169.083 24.5L175.271 33L170.103 33.034L166.499 28.07L162.861 33.034L157.693 33L163.881 24.5L157.693 16H162.861L166.499 20.964L170.103 16Z" fill="#270F3A"/>
</svg>
